# xmcd CD database file
#
# Track frame offsets:
#	150
#	29237
#	63950
#	84751
#	112884
#	141281
#	165963
#	211068
#
# Disc length: 3114 seconds
#
# Revision: 0
# Processed by: cddbd v1.5.1PL0 Copyright (c) Steve Scherf et al.
# Submitted via: CDex 1.50
#
DISCID=5f0c2808
DTITLE=MOTION TRIO - LIVE in Vienna
DYEAR=2004
DGENRE=Jazz
TTITLE0=HEART/Serce/Das Herz
TTITLE1=SOUNDS OF WAR/D¿wi¿ki wojny/Gerausche des Krieges
TTITLE2=FIRST DAY OF SPRING/Pierwszy dzie¿ wiosny/Erster Fruhlingstag
TTITLE3=PSALM
TTITLE4=STARS/Gwiazdy/Sterne
TTITLE5=UFO
TTITLE6=SILENCE/Cisza/Stille
TTITLE7=GAME VI/Gra VI - kosmiczna karuzela/Spiel VI
EXTD=YEAR: 2004
EXTT0=
EXTT1=
EXTT2=
EXTT3=
EXTT4=
EXTT5=
EXTT6=
EXTT7=
PLAYORDER=
